<?xml version="1.0" encoding="UTF-8" standalone="no"?>
<svg
   xmlns:dc="http://purl.org/dc/elements/1.1/"
   xmlns:cc="http://creativecommons.org/ns#"
   xmlns:rdf="http://www.w3.org/1999/02/22-rdf-syntax-ns#"
   xmlns:svg="http://www.w3.org/2000/svg"
   xmlns="http://www.w3.org/2000/svg"
   xmlns:sodipodi="http://sodipodi.sourceforge.net/DTD/sodipodi-0.dtd"
   xmlns:inkscape="http://www.inkscape.org/namespaces/inkscape"
   viewBox="0 0 166.33 123.23"
   version="1.1"
   id="svg997"
   sodipodi:docname="lcds_blue.svg"
   inkscape:version="0.92.3 (2405546, 2018-03-11)">
  <metadata
     id="metadata1001">
    <rdf:RDF>
      <cc:Work
         rdf:about="">
        <dc:format>image/svg+xml</dc:format>
        <dc:type
           rdf:resource="http://purl.org/dc/dcmitype/StillImage" />
        <dc:title>Asset 2</dc:title>
      </cc:Work>
    </rdf:RDF>
  </metadata>
  <sodipodi:namedview
     pagecolor="#ffffff"
     bordercolor="#666666"
     borderopacity="1"
     objecttolerance="10"
     gridtolerance="10"
     guidetolerance="10"
     inkscape:pageopacity="0"
     inkscape:pageshadow="2"
     inkscape:window-width="2685"
     inkscape:window-height="1584"
     id="namedview999"
     showgrid="false"
     inkscape:zoom="6.8976708"
     inkscape:cx="44.303517"
     inkscape:cy="56.836651"
     inkscape:window-x="244"
     inkscape:window-y="3844"
     inkscape:window-maximized="0"
     inkscape:current-layer="svg997" />
  <defs
     id="defs911">
    <style
       id="style909">.cls-1{fill:#001c54;}</style>
  </defs>
  <title
     id="title913">Asset 2</title>
  <rect
     class="cls-1"
     y="49.099998"
     width="133.42"
     height="16.559999"
     id="rect915"
     x="0"
     style="fill:#001c54" />
  <rect
     class="cls-1"
     y="24.540001"
     width="105.58"
     height="16.41"
     id="rect917"
     x="0"
     style="fill:#001c54" />
  <rect
     class="cls-1"
     width="66.709999"
     height="16.209999"
     id="rect919"
     x="0"
     y="0"
     style="fill:#001c54" />
  <path
     class="cls-1"
     d="m 12.73,78.94 v 14.33 c 0,3.76 -2.49,5.25 -6.24,5.25 H 0.14 V 73.69 h 6.35 c 3.75,0 6.24,1.49 6.24,5.25 z M 6.34,77.31 H 4.25 V 94.9 h 2.09 c 1.35,0 2.27,-0.5 2.27,-2.27 v -13 c 0,-1.82 -0.92,-2.32 -2.27,-2.32 z"
     id="path921"
     inkscape:connector-curvature="0"
     style="fill:#001c54" />
  <path
     class="cls-1"
     d="M 16.13,98.52 V 73.69 H 27 v 3.62 h -6.76 v 6.81 h 5.68 v 3.62 h -5.68 v 7.16 h 6.88 v 3.62 z"
     id="path923"
     inkscape:connector-curvature="0"
     style="fill:#001c54" />
  <path
     class="cls-1"
     d="M 39.89,94.9 H 37.58 L 33.86,83.34 V 98.52 H 30 V 73.69 h 3.9 l 4.79,14.44 4.82,-14.44 h 4 v 24.83 h -4 V 83.34 Z"
     id="path925"
     inkscape:connector-curvature="0"
     style="fill:#001c54" />
  <path
     class="cls-1"
     d="m 57.22,73.41 h 0.29 c 3.76,0 6.24,1.49 6.24,5.25 v 14.89 c 0,3.76 -2.48,5.25 -6.24,5.25 h -0.29 c -3.75,0 -6.24,-1.49 -6.24,-5.25 V 78.66 c 0.02,-3.8 2.49,-5.25 6.24,-5.25 z m 0.15,21.77 c 1.34,0 2.27,-0.49 2.27,-2.27 V 79.3 c 0,-1.78 -0.93,-2.27 -2.27,-2.27 -1.34,0 -2.27,0.49 -2.27,2.27 v 13.61 c 0,1.78 0.9,2.27 2.27,2.27 z"
     id="path927"
     inkscape:connector-curvature="0"
     style="fill:#001c54" />
  <path
     class="cls-1"
     d="m 79.78,93.55 c 0,3.83 -2.49,5.25 -6.24,5.25 h -0.29 c -3.76,0 -6.24,-1.38 -6.24,-5.25 V 78.66 c 0,-3.69 2.48,-5.25 6.24,-5.25 h 0.29 c 3.75,0 6.24,1.56 6.24,5.25 v 3.54 h -4.12 v -2.9 c 0,-1.78 -0.92,-2.27 -2.27,-2.27 -1.35,0 -2.27,0.49 -2.27,2.27 v 13.61 c 0,1.78 0.93,2.27 2.27,2.27 1.34,0 2.27,-0.49 2.27,-2.27 v -3.68 h -2.41 v -3.48 h 6.53 z"
     id="path929"
     inkscape:connector-curvature="0"
     style="fill:#001c54" />
  <path
     class="cls-1"
     d="m 92.43,98.52 -3.15,-9.9 h -2.06 v 9.9 H 83.11 V 73.69 h 6.42 c 3.76,0 6.24,1.49 6.24,5.25 v 4.44 c 0,2.37 -1,3.86 -2.7,4.6 l 3.55,10.54 z M 87.22,85.08 h 2.16 c 1.35,0 2.27,-0.5 2.27,-2.27 v -3.23 c 0,-1.77 -0.92,-2.27 -2.27,-2.27 h -2.16 z"
     id="path931"
     inkscape:connector-curvature="0"
     style="fill:#001c54" />
  <path
     class="cls-1"
     d="m 107,93 h -4.54 l -0.89,5.54 h -4 l 4.61,-24.83 h 5.18 l 4.68,24.83 h -4.19 z m -0.53,-3.4 -1.74,-11 -1.74,11 z"
     id="path933"
     inkscape:connector-curvature="0"
     style="fill:#001c54" />
  <path
     class="cls-1"
     d="m 126.79,78.94 v 4.72 c 0,3.76 -2.48,5.25 -6.24,5.25 h -2.3 v 9.61 h -4.12 V 73.69 h 6.42 c 3.76,0 6.24,1.49 6.24,5.25 z m -4.11,0.64 c 0,-1.77 -0.92,-2.27 -2.27,-2.27 h -2.16 v 8 h 2.16 c 1.35,0 2.27,-0.5 2.27,-2.27 z"
     id="path935"
     inkscape:connector-curvature="0"
     style="fill:#001c54" />
  <path
     class="cls-1"
     d="m 133.53,73.69 v 10.36 h 4.71 V 73.69 h 4.12 v 24.83 h -4.12 V 87.74 h -4.71 v 10.78 h -4.11 V 73.69 Z"
     id="path937"
     inkscape:connector-curvature="0"
     style="fill:#001c54" />
  <path
     class="cls-1"
     d="M 146,98.52 V 73.69 h 4.12 v 24.83 z"
     id="path939"
     inkscape:connector-curvature="0"
     style="fill:#001c54" />
  <path
     class="cls-1"
     d="m 166.26,93.55 c 0,3.83 -2.49,5.25 -6.24,5.25 h -0.08 c -3.75,0 -6.24,-1.38 -6.24,-5.25 V 78.66 c 0,-3.69 2.49,-5.25 6.24,-5.25 H 160 c 3.75,0 6.24,1.56 6.24,5.25 v 4.54 h -4.12 v -3.9 c 0,-1.74 -0.85,-2.27 -2.16,-2.27 -1.31,0 -2.16,0.53 -2.16,2.27 v 13.61 c 0,1.74 0.85,2.27 2.16,2.27 1.31,0 2.16,-0.53 2.16,-2.27 v -4.5 h 4.12 z"
     id="path941"
     inkscape:connector-curvature="0"
     style="fill:#001c54" />
  <path
     class="cls-1"
     d="M 78.45,16.11 H 72.61 V 0.09 h 0.91 v 15.15 h 4.93 z"
     id="path943"
     inkscape:connector-curvature="0"
     style="fill:#001c54" />
  <path
     class="cls-1"
     d="M 80.55,16.11 V 0.09 h 6.11 V 1 H 81.47 V 7.55 H 86 v 0.87 h -4.53 v 6.82 h 5.26 v 0.87 z"
     id="path945"
     inkscape:connector-curvature="0"
     style="fill:#001c54" />
  <path
     class="cls-1"
     d="m 92.84,16.11 h -1 L 88.33,0.09 h 1 l 3.09,14.22 3.05,-14.22 h 0.92 z"
     id="path947"
     inkscape:connector-curvature="0"
     style="fill:#001c54" />
  <path
     class="cls-1"
     d="M 98.63,16.11 V 0.09 h 6.11 V 1 H 99.55 V 7.55 H 104 v 0.87 h -4.45 v 6.82 h 5.26 v 0.87 z"
     id="path949"
     inkscape:connector-curvature="0"
     style="fill:#001c54" />
  <path
     class="cls-1"
     d="m 114.17,16.11 -2.79,-7 h -3.09 v 7 h -0.92 V 0.09 h 3.69 c 2.43,0 3.57,1.19 3.57,3.39 V 5.7 c 0,1.76 -0.73,2.88 -2.29,3.25 l 2.84,7.16 z M 113.71,5.29 V 3.89 C 113.71,1.83 113,1 111,1 h -2.68 V 8.22 H 111 c 2,0 2.71,-0.87 2.71,-2.93 z"
     id="path951"
     inkscape:connector-curvature="0"
     style="fill:#001c54" />
  <path
     class="cls-1"
     d="m 118.61,0.09 v 7.44 h 5.61 V 0.09 h 0.92 v 16 h -0.92 V 8.4 h -5.61 v 7.71 H 117.7 V 0.09 Z"
     id="path953"
     inkscape:connector-curvature="0"
     style="fill:#001c54" />
  <path
     class="cls-1"
     d="m 135.43,12.91 c 0,2.24 -1.1,3.39 -3.52,3.39 h -0.09 c -2.43,0 -3.53,-1.13 -3.53,-3.39 V 0.09 h 0.92 V 12.5 c 0,2.06 0.64,2.93 2.65,2.93 2.01,0 2.66,-0.87 2.66,-2.93 V 0.09 h 0.91 z"
     id="path955"
     inkscape:connector-curvature="0"
     style="fill:#001c54" />
  <path
     class="cls-1"
     d="m 144.43,16.11 h -5.84 V 0.09 h 0.92 v 15.15 h 4.92 z"
     id="path957"
     inkscape:connector-curvature="0"
     style="fill:#001c54" />
  <path
     class="cls-1"
     d="m 152,13.32 h -0.53 l -4,-10.8 V 16.11 H 146.6 V 0.09 h 0.92 L 151.75,11.6 156,0.09 h 1 v 16 h -1 V 2.52 Z"
     id="path959"
     inkscape:connector-curvature="0"
     style="fill:#001c54" />
  <path
     class="cls-1"
     d="M 160.15,16.11 V 0.09 h 6.11 V 1 h -5.19 v 6.55 h 4.48 v 0.87 h -4.48 v 6.82 h 5.26 v 0.87 z"
     id="path961"
     inkscape:connector-curvature="0"
     style="fill:#001c54" />
  <path
     class="cls-1"
     d="m 118.74,37.7 c 0,2.27 -1.16,3.43 -3.61,3.43 v 0 c -2.46,0 -3.62,-1.14 -3.62,-3.43 V 28 c 0,-2.18 1.16,-3.43 3.62,-3.43 v 0 c 2.45,0 3.61,1.25 3.61,3.43 v 2.7 h -0.93 v -2.31 c 0,-2.07 -0.69,-3 -2.71,-3 -2.02,0 -2.71,0.9 -2.71,3 v 8.89 c 0,2.07 0.7,3 2.71,3 2.01,0 2.71,-0.9 2.71,-3 v -2.71 h 0.93 z"
     id="path963"
     inkscape:connector-curvature="0"
     style="fill:#001c54" />
  <path
     class="cls-1"
     d="M 121.8,41 V 24.72 h 6.2 v 0.88 h -5.26 v 6.68 h 4.55 v 0.88 h -4.55 v 6.9 h 5.33 V 41 Z"
     id="path965"
     inkscape:connector-curvature="0"
     style="fill:#001c54" />
  <path
     class="cls-1"
     d="M 130.65,41 V 24.72 h 1 l 5.73,14 v -14 h 0.92 V 41 h -0.92 L 131.6,27 v 14 z"
     id="path967"
     inkscape:connector-curvature="0"
     style="fill:#001c54" />
  <path
     class="cls-1"
     d="m 147.54,25.6 h -3.13 V 41 h -0.93 V 25.6 h -3.12 v -0.88 h 7.18 z"
     id="path969"
     inkscape:connector-curvature="0"
     style="fill:#001c54" />
  <path
     class="cls-1"
     d="m 156.51,41 -2.83,-7.12 h -3.13 V 41 h -0.93 V 24.72 h 3.74 c 2.45,0 3.61,1.21 3.61,3.43 v 2.25 c 0,1.79 -0.74,2.92 -2.32,3.29 L 157.53,41 Z M 156,30 v -1.43 c 0,-2.09 -0.74,-3 -2.78,-3 h -2.71 V 33 h 2.71 c 2.08,0 2.78,-0.93 2.78,-3 z"
     id="path971"
     inkscape:connector-curvature="0"
     style="fill:#001c54" />
  <path
     class="cls-1"
     d="M 160.07,41 V 24.72 h 6.19 V 25.6 H 161 v 6.68 h 4.54 v 0.88 H 161 v 6.9 h 5.33 V 41 Z"
     id="path973"
     inkscape:connector-curvature="0"
     style="fill:#001c54" />
  <path
     class="cls-1"
     d="m 139.3,49.29 h 6.19 v 0.89 h -5.25 v 6.9 h 4.52 V 58 h -4.52 v 7.79 h -0.94 z"
     id="path975"
     inkscape:connector-curvature="0"
     style="fill:#001c54" />
  <path
     class="cls-1"
     d="m 151.23,49.1 h 0.19 c 2.49,0 3.67,1.23 3.67,3.48 v 9.88 c 0,2.26 -1.18,3.49 -3.67,3.49 h -0.19 c -2.49,0 -3.67,-1.23 -3.67,-3.49 v -9.88 c 0,-2.28 1.18,-3.48 3.67,-3.48 z m 0.09,15.95 c 2.07,0 2.83,-0.89 2.83,-3 V 53 c 0,-2.12 -0.76,-3 -2.83,-3 -2.07,0 -2.82,0.89 -2.82,3 v 9 c 0,2.16 0.75,3.05 2.82,3.05 z"
     id="path977"
     inkscape:connector-curvature="0"
     style="fill:#001c54" />
  <path
     class="cls-1"
     d="m 165.27,65.76 -2.87,-7.22 h -3.17 v 7.22 h -0.94 V 49.29 h 3.78 c 2.5,0 3.67,1.22 3.67,3.48 v 2.28 c 0,1.82 -0.75,3 -2.35,3.34 l 2.92,7.37 z M 164.8,54.63 v -1.44 c 0,-2.11 -0.75,-3 -2.82,-3 h -2.75 v 7.46 H 162 c 2.05,-0.01 2.8,-0.9 2.8,-3.02 z"
     id="path979"
     inkscape:connector-curvature="0"
     style="fill:#001c54" />
  <path
     class="cls-1"
     d="M 5.4,112.58 V 110.3 A 1.23,1.23 0 0 0 4,108.91 1.23,1.23 0 0 0 2.62,110.3 v 1.12 a 1.64,1.64 0 0 0 1.05,1.65 l 1.91,1.07 c 1.56,0.88 2.49,1.6 2.49,3.35 v 2.35 c 0,2.51 -1.56,3.39 -4,3.39 H 4 c -2.47,0 -4,-0.86 -4,-3.39 V 117 h 2.65 v 2.47 a 1.29,1.29 0 0 0 1.4,1.44 1.28,1.28 0 0 0 1.39,-1.44 v -1.28 a 1.65,1.65 0 0 0 -1.07,-1.7 L 2.49,115.42 C 0.91,114.51 0,113.77 0,112.07 v -2.14 c 0,-2.42 1.77,-3.35 4,-3.35 v 0 c 2.23,0 4,0.93 4,3.35 v 2.65 z"
     id="path981"
     inkscape:connector-curvature="0"
     style="fill:#001c54" />
  <path
     class="cls-1"
     d="m 18.19,119.79 c 0,2.51 -1.63,3.44 -4.09,3.44 v 0 c -2.47,0 -4.09,-0.9 -4.09,-3.44 V 110 c 0,-2.42 1.62,-3.44 4.09,-3.44 v 0 c 2.46,0 4.09,1 4.09,3.44 v 3 h -2.7 v -2.56 c 0,-1.14 -0.56,-1.49 -1.42,-1.49 -0.86,0 -1.42,0.35 -1.42,1.49 v 8.93 c 0,1.14 0.56,1.49 1.42,1.49 0.86,0 1.42,-0.35 1.42,-1.49 v -3 h 2.7 z"
     id="path983"
     inkscape:connector-curvature="0"
     style="fill:#001c54" />
  <path
     class="cls-1"
     d="m 20.42,123.05 v -16.29 h 2.7 v 16.29 z"
     id="path985"
     inkscape:connector-curvature="0"
     style="fill:#001c54" />
  <path
     class="cls-1"
     d="m 25.54,123.05 v -16.29 h 7.14 v 2.38 h -4.44 v 4.46 H 32 v 2.4 h -3.76 v 4.7 h 4.51 v 2.37 z"
     id="path987"
     inkscape:connector-curvature="0"
     style="fill:#001c54" />
  <path
     class="cls-1"
     d="m 34.66,123.05 v -16.29 h 2.7 l 3.42,10.08 v -10.08 h 2.46 v 16.29 h -2.56 l -3.56,-10.59 v 10.59 z"
     id="path989"
     inkscape:connector-curvature="0"
     style="fill:#001c54" />
  <path
     class="cls-1"
     d="m 53.71,119.79 c 0,2.51 -1.63,3.44 -4.09,3.44 v 0 c -2.47,0 -4.1,-0.9 -4.1,-3.44 V 110 c 0,-2.42 1.63,-3.44 4.1,-3.44 v 0 c 2.46,0 4.09,1 4.09,3.44 v 3 H 51 v -2.56 c 0,-1.14 -0.56,-1.49 -1.42,-1.49 -0.86,0 -1.42,0.35 -1.42,1.49 v 8.93 c 0,1.14 0.56,1.49 1.42,1.49 0.86,0 1.42,-0.35 1.42,-1.49 v -3 h 2.7 z"
     id="path991"
     inkscape:connector-curvature="0"
     style="fill:#001c54" />
  <path
     class="cls-1"
     d="M 55.85,123.05 V 106.76 H 63 v 2.38 h -4.45 v 4.46 h 3.72 v 2.4 h -3.72 v 4.7 h 4.51 v 2.37 z"
     id="path993"
     inkscape:connector-curvature="0"
     style="fill:#001c54" />
</svg>
